<svg width="272" height="64" viewBox="0 0 272 64" fill="none" xmlns="http://www.w3.org/2000/svg">
<mask id="path-1-inside-1_11_872" fill="white">
<path fill-rule="evenodd" clip-rule="evenodd" d="M10 0H0V10C0 4.47715 4.47715 0 10 0ZM262 0C267.523 0 272 4.47715 272 10V0H262ZM272 54C272 59.5228 267.523 64 262 64H272V54ZM9.99999 64C4.47715 64 0 59.5228 0 54V64H9.99999Z"/>
</mask>
<path fill-rule="evenodd" clip-rule="evenodd" d="M10 0H0V10C0 4.47715 4.47715 0 10 0ZM262 0C267.523 0 272 4.47715 272 10V0H262ZM272 54C272 59.5228 267.523 64 262 64H272V54ZM9.99999 64C4.47715 64 0 59.5228 0 54V64H9.99999Z" fill="white"/>
<path d="M0 0V-1H-1V0H0ZM272 0H273V-1H272V0ZM272 64V65H273V64H272ZM0 64H-1V65H0V64ZM0 1H10V-1H0V1ZM1 10V0H-1V10H1ZM1 10C1 5.02944 5.02944 1 10 1V-1C3.92487 -1 -1 3.92487 -1 10H1ZM262 1C266.971 1 271 5.02944 271 10H273C273 3.92487 268.075 -1 262 -1V1ZM271 0V10H273V0H271ZM262 1H272V-1H262V1ZM271 54C271 58.9706 266.971 63 262 63V65C268.075 65 273 60.0751 273 54H271ZM272 63H262V65H272V63ZM271 54V64H273V54H271ZM9.99999 63C5.02943 63 1 58.9706 1 54H-1C-1 60.0751 3.92486 65 9.99999 65V63ZM1 64V54H-1V64H1ZM9.99999 63H0V65H9.99999V63Z" fill="white" mask="url(#path-1-inside-1_11_872)"/>
</svg>
