<svg width="95" height="95" viewBox="0 0 95 95" fill="none" xmlns="http://www.w3.org/2000/svg">
<g clip-path="url(#clip0_401_2)">
<rect width="95" height="95" fill="black"/>
<g clip-path="url(#clip1_401_2)">
<path d="M32.5185 30.9491C28.634 35.5612 21.7609 36.1426 17.166 32.2436C12.571 28.3446 11.9918 21.4457 15.8763 16.8336C19.7608 12.2214 26.6339 11.6401 31.2288 15.5391C32.2173 16.3762 33.0127 17.3607 33.6228 18.4304L44.7897 11.9579C43.4537 9.63242 41.7238 7.4775 39.5538 5.64039C29.5221 -2.87076 14.5017 -1.59951 6.02226 8.47745C-2.46487 18.5544 -1.19837 33.6311 8.841 42.1422C18.8804 50.6534 33.9008 49.3899 42.3802 39.3129C43.3069 38.2122 44.1024 37.0417 44.7974 35.8325L33.6305 29.36C33.3139 29.9104 32.9509 30.4452 32.5262 30.9568L32.5185 30.9491Z" fill="#D5CEB3"/>
<path d="M44.7968 11.959L33.6299 18.4315C35.5529 21.7724 35.5992 25.9504 33.6299 29.3534L44.7968 35.8259C49.0906 28.3767 48.9902 19.2531 44.7968 11.959Z" fill="white"/>
<path d="M91.8114 11.9577C90.4754 9.63224 88.7455 7.47732 86.5754 5.64022C76.5361 -2.87094 61.5156 -1.60744 53.0362 8.46951C44.5568 18.5465 45.8156 33.6231 55.855 42.1343C65.8943 50.6455 80.9148 49.382 89.3942 39.305C90.3209 38.2043 91.1163 37.0338 91.8114 35.8246C96.1051 28.3754 96.0047 19.2519 91.8114 11.9577ZM79.5402 30.9489C75.6557 35.561 68.7826 36.1424 64.1876 32.2434C59.5927 28.3444 59.0135 21.4455 62.898 16.8334C66.7824 12.2212 73.6555 11.6399 78.2505 15.5389C79.239 16.3761 80.0344 17.3605 80.6445 18.4302C82.5674 21.7711 82.6138 25.9492 80.6445 29.3521C80.3279 29.9024 79.9649 30.4373 79.5402 30.9489Z" fill="white"/>
<path d="M62.8767 64.0483C66.7611 59.4362 73.6342 58.8548 78.2292 62.7538C82.8241 66.6528 83.4033 73.5516 79.5189 78.1638C75.6344 82.7759 68.7613 83.3573 64.1663 79.4583C63.1779 78.6211 62.3824 77.6367 61.7723 76.567L50.6055 83.0395C51.9415 85.3649 53.6713 87.5198 55.8414 89.357C65.8808 97.8681 80.9012 96.6046 89.3806 86.5277C97.86 76.4507 96.6012 61.374 86.5619 52.8629C76.5225 44.3517 61.502 45.6152 53.0226 55.6922C52.0959 56.7929 51.3005 57.9634 50.6055 59.1726L61.7723 65.6451C62.089 65.0947 62.4519 64.5599 62.8767 64.0483Z" fill="#D5CEB3"/>
<path d="M50.6037 83.0392L61.7706 76.5667C59.8476 73.2258 59.8013 69.0478 61.7706 65.6449L50.6037 59.1724C46.3099 66.6216 46.4103 75.7451 50.6037 83.0392Z" fill="white"/>
<path d="M39.5391 52.8551C29.4997 44.3439 14.4793 45.6074 5.99986 55.6844C5.07315 56.7851 4.27772 57.9555 3.58269 59.1648C-0.711075 66.614 -0.610682 75.7375 3.58269 83.0317C4.9187 85.3571 6.64856 87.512 8.81861 89.3491C18.858 97.8603 33.8784 96.5968 42.3578 86.5198C50.8372 76.4429 49.5785 61.3662 39.5391 52.8551ZM32.5038 78.1637C28.6193 82.7759 21.7462 83.3572 17.1513 79.4582C16.1628 78.6211 15.3674 77.6366 14.7573 76.5669C12.8344 73.226 12.788 69.048 14.7573 65.645C15.0739 65.0947 15.4369 64.5598 15.8616 64.0482C19.7461 59.4361 26.6192 58.8547 31.2141 62.7537C35.8091 66.6527 36.3883 73.5516 32.5038 78.1637Z" fill="white"/>
</g>
</g>
<defs>
<clipPath id="clip0_401_2">
<rect width="95" height="95" fill="white"/>
</clipPath>
<clipPath id="clip1_401_2">
<rect width="95" height="95" fill="white"/>
</clipPath>
</defs>
</svg>
